<?xml version="1.0" standalone="no"?>
<!DOCTYPE svg PUBLIC "-//W3C//DTD SVG 20010904//EN"
 "http://www.w3.org/TR/2001/REC-SVG-20010904/DTD/svg10.dtd">
<svg version="1.0" xmlns="http://www.w3.org/2000/svg"
 width="1112.000000pt" height="1112.000000pt" viewBox="0 0 1112.000000 1112.000000"
 preserveAspectRatio="xMidYMid meet">
<metadata>
Created by potrace 1.11, written by Peter Selinger 2001-2013
</metadata>
<g transform="translate(0.000000,1112.000000) scale(0.100000,-0.100000)"
fill="#000000" stroke="none">
<path d="M7799 11116 c-2 -2 -38 -6 -79 -10 -41 -3 -106 -11 -145 -17 -38 -6
-83 -12 -98 -14 -125 -18 -501 -116 -592 -155 -11 -5 -60 -23 -110 -40 -414
-147 -1081 -513 -1480 -812 -5 -4 -57 -42 -115 -85 -163 -119 -437 -341 -566
-458 -7 -5 -42 -37 -79 -70 -91 -81 -167 -154 -310 -295 -216 -213 -381 -391
-570 -616 -26 -31 -59 -55 -95 -71 -170 -75 -495 -247 -620 -328 -36 -23 -92
-59 -125 -80 -121 -76 -380 -268 -459 -340 -6 -6 -24 -21 -41 -33 -103 -80
-390 -359 -515 -502 -122 -140 -170 -196 -193 -227 -12 -17 -61 -81 -108 -144
-47 -63 -92 -125 -99 -139 -7 -14 -16 -27 -20 -30 -44 -32 -393 -664 -425
-770 -4 -13 -22 -56 -40 -95 -45 -98 -124 -320 -165 -465 -12 -41 -30 -104
-40 -140 -10 -36 -21 -78 -24 -95 -2 -16 -16 -79 -29 -140 -14 -60 -28 -134
-32 -164 -4 -30 -8 -61 -10 -70 -1 -9 -6 -36 -9 -61 -3 -25 -8 -55 -10 -67 -5
-22 -10 -77 -23 -238 -9 -113 -9 -483 0 -590 13 -149 18 -199 22 -205 2 -3 6
-34 10 -70 3 -35 8 -67 10 -70 1 -3 6 -30 9 -60 4 -30 18 -104 32 -165 13 -60
27 -123 30 -140 13 -70 102 -356 134 -430 5 -11 21 -54 36 -95 40 -110 152
-349 219 -470 20 -36 46 -83 58 -105 12 -22 24 -42 27 -45 3 -3 45 -63 92
-135 76 -114 119 -173 243 -330 91 -115 373 -399 481 -485 10 -8 53 -42 94
-76 164 -132 381 -275 570 -377 146 -78 220 -115 220 -111 0 3 17 -4 38 -14
77 -41 232 -102 387 -152 88 -29 167 -55 175 -58 8 -3 20 -6 25 -8 17 -5 329
-76 350 -80 62 -11 217 -35 260 -40 28 -3 64 -7 80 -9 163 -20 639 -27 815
-11 129 11 182 16 212 22 15 3 42 7 60 9 75 8 134 16 149 21 9 2 52 11 95 19
43 8 93 17 109 20 17 3 59 13 94 21 36 9 72 17 80 19 46 9 121 29 156 40 22 8
94 31 160 51 119 37 293 99 357 127 38 17 69 29 83 32 6 2 51 22 100 46 50 23
92 43 95 44 3 1 29 13 59 28 30 15 60 27 67 27 7 0 14 3 16 8 2 4 28 20 58 36
169 87 342 189 453 265 37 25 80 53 96 62 15 8 51 33 79 55 28 21 73 55 99 74
241 174 522 427 760 685 108 118 123 135 149 171 10 14 26 34 35 43 18 18 94
114 124 156 11 16 25 33 31 40 47 47 289 421 372 575 189 348 308 636 411 995
40 140 78 300 96 410 3 17 7 44 10 60 3 17 8 46 11 65 3 19 7 46 10 60 2 14 7
52 10 85 3 33 7 76 9 95 19 139 25 476 12 650 -17 224 -20 249 -50 422 l-13
78 63 92 c34 51 63 96 63 100 0 4 20 38 44 75 108 168 290 522 394 768 111
261 214 580 258 795 2 14 9 39 14 55 5 17 12 48 15 70 3 22 12 78 20 125 14
85 17 111 32 245 19 169 7 589 -21 755 -3 14 -8 43 -11 65 -15 93 -20 116 -52
235 -14 52 -29 110 -33 127 -20 84 -122 333 -195 478 -65 129 -246 423 -274
445 -3 3 -18 21 -32 40 -15 19 -41 51 -58 70 -18 19 -46 53 -64 74 -135 165
-449 425 -652 541 -87 50 -268 139 -330 163 -33 13 -69 28 -80 33 -49 21 -276
82 -349 93 -21 4 -48 8 -60 11 -44 10 -83 16 -126 21 -58 5 -407 14 -411 10z
m1231 -1520 c19 -2 46 -4 59 -5 l23 -1 -6 -107 c-3 -60 -8 -120 -11 -136 -3
-15 -9 -53 -15 -85 -5 -31 -12 -73 -15 -92 -3 -19 -12 -57 -19 -85 -8 -27 -17
-66 -20 -85 -6 -34 -23 -95 -68 -245 -79 -261 -254 -662 -425 -972 l-29 -52
-35 33 c-30 30 -120 107 -249 215 -99 83 -414 297 -491 335 -8 3 -32 17 -54
31 -57 35 -328 169 -405 200 -36 14 -78 32 -95 40 -28 12 -135 50 -310 110
-38 13 -106 33 -150 45 -44 11 -84 22 -90 24 -5 1 -25 6 -42 10 -18 4 -33 11
-33 15 0 4 32 27 71 52 38 24 85 53 103 65 216 139 572 320 861 436 90 36 246
92 285 102 8 2 35 11 60 19 38 13 72 23 145 43 30 8 253 55 284 60 20 3 50 8
66 10 56 10 90 14 165 19 41 3 76 7 77 9 4 4 319 -3 363 -8z m-2720 -1650 c91
-4 182 -10 202 -15 20 -5 39 -7 41 -4 8 7 363 -58 447 -82 8 -2 44 -11 80 -20
186 -45 374 -116 595 -225 146 -72 165 -84 215 -141 30 -34 62 -69 70 -78 9
-9 29 -35 45 -56 17 -22 35 -44 41 -50 29 -28 86 -126 81 -139 -21 -54 -405
-550 -577 -746 -8 -9 -42 -48 -75 -85 -203 -232 -588 -614 -790 -786 -22 -19
-42 -36 -45 -39 -3 -3 -34 -30 -70 -60 -36 -30 -67 -57 -70 -60 -3 -3 -39 -33
-80 -65 -41 -32 -77 -62 -80 -66 -9 -11 -353 -264 -450 -329 -52 -36 -96 -68
-98 -72 -2 -5 -10 -8 -18 -8 -8 0 -14 -4 -14 -10 0 -5 -5 -10 -10 -10 -6 0
-41 -19 -78 -43 -148 -96 -199 -127 -204 -127 -3 0 -37 -19 -74 -42 -160 -96
-540 -281 -704 -342 -41 -15 -88 -34 -105 -41 -122 -51 -342 -114 -560 -159
-131 -27 -178 -33 -302 -42 -76 -6 -83 -5 -84 12 0 11 -2 30 -5 43 -25 134
-24 434 1 631 14 105 17 127 21 142 3 10 7 29 10 43 9 54 13 72 23 115 14 56
19 77 27 115 8 41 85 288 128 410 36 100 47 128 71 175 7 14 14 28 14 33 1 7
16 44 48 115 9 20 17 39 18 42 3 12 133 272 171 340 71 129 85 153 143 248 31
51 61 100 66 110 82 141 388 564 499 692 17 20 45 53 61 74 17 22 41 51 55 66
14 14 36 40 50 57 112 136 397 428 426 437 30 9 78 16 149 22 33 2 74 7 90 9
17 3 116 8 220 11 105 4 192 8 193 10 2 1 9 1 15 -1 7 -2 86 -6 177 -9z
m-4095 -2033 c-4 -10 -9 -27 -10 -38 -2 -11 -10 -49 -18 -85 -8 -36 -20 -101
-27 -145 -6 -44 -13 -90 -15 -103 -23 -137 -23 -591 0 -672 2 -8 7 -39 10 -69
27 -222 174 -607 324 -846 50 -81 143 -212 171 -243 9 -9 37 -44 63 -77 73
-94 261 -274 412 -398 90 -74 228 -165 390 -259 39 -23 166 -84 315 -152 62
-29 351 -123 420 -136 25 -6 76 -16 113 -24 68 -15 176 -31 272 -41 28 -2 61
-7 75 -10 31 -7 401 -7 490 -1 60 4 142 14 182 21 9 2 45 6 80 10 174 18 669
147 823 215 36 16 153 60 159 60 4 0 77 32 163 71 200 90 440 214 538 277 11
6 30 16 42 22 30 13 278 170 393 248 160 110 191 132 324 235 56 42 114 87
130 100 17 12 39 31 51 42 11 11 54 47 95 80 89 71 99 80 168 144 28 27 52 44
52 39 0 -44 -213 -501 -299 -641 -23 -37 -41 -70 -41 -73 0 -7 -178 -274 -237
-355 -192 -262 -478 -564 -753 -795 -256 -214 -520 -388 -890 -585 -106 -57
-466 -208 -580 -243 -30 -10 -62 -20 -70 -23 -8 -3 -19 -7 -25 -8 -5 -2 -57
-17 -115 -33 -124 -37 -347 -90 -399 -97 -20 -2 -65 -9 -101 -15 -71 -13 -83
-15 -179 -24 -35 -4 -67 -8 -70 -10 -12 -8 -260 -19 -406 -19 -155 1 -341 9
-385 17 -14 3 -50 8 -80 11 -53 5 -76 8 -150 21 -52 9 -71 12 -110 18 -118 19
-395 99 -558 162 -104 40 -296 128 -304 139 -4 5 -8 7 -8 3 0 -14 -356 200
-430 259 -8 6 -53 42 -100 79 -116 93 -300 270 -376 364 -16 19 -35 41 -42 48
-7 8 -25 30 -40 50 -15 21 -30 39 -33 42 -14 11 -150 221 -182 281 -35 63 -62
165 -72 264 -2 28 -6 59 -9 70 -7 34 -19 253 -19 355 -1 129 17 443 27 485 3
11 8 43 11 70 5 41 30 168 50 260 3 11 7 34 11 50 46 230 241 751 359 960 15
28 42 77 59 110 72 140 341 555 360 555 4 0 5 -8 1 -17z"/>
</g>
</svg>
