<?xml version="1.0" standalone="no"?>
<!DOCTYPE svg PUBLIC "-//W3C//DTD SVG 20010904//EN"
 "http://www.w3.org/TR/2001/REC-SVG-20010904/DTD/svg10.dtd">
<svg version="1.0" xmlns="http://www.w3.org/2000/svg"
 width="700.000000pt" height="700.000000pt" viewBox="0 0 700.000000 700.000000"
 preserveAspectRatio="xMidYMid meet">
<metadata>
Created by potrace 1.11, written by Peter Selinger 2001-2013
</metadata>
<g transform="translate(0.000000,700.000000) scale(0.100000,-0.100000)"
fill="#000000" stroke="none">
<path d="M1280 5654 c-7 -44 -14 -88 -16 -99 -38 -218 -74 -443 -74 -459 0
-12 18 -77 40 -146 40 -124 56 -202 59 -291 1 -9 52 -95 114 -191 80 -123 133
-192 177 -234 35 -32 100 -93 144 -135 45 -41 113 -104 152 -140 81 -72 97
-94 62 -86 -13 3 -54 9 -93 12 -38 4 -78 9 -88 11 -10 2 -64 8 -120 14 -56 6
-121 13 -144 16 -37 5 -70 -7 -306 -113 -146 -65 -263 -121 -261 -125 3 -4 -1
-5 -9 -3 -7 3 -31 -8 -53 -26 -21 -17 -53 -42 -71 -56 -17 -14 -110 -143 -206
-287 -149 -223 -181 -277 -217 -371 -23 -60 -43 -117 -45 -125 -6 -25 -63
-293 -69 -320 -2 -14 -32 -160 -66 -325 -34 -165 -63 -314 -64 -332 -2 -18 3
-67 10 -110 6 -43 14 -96 17 -118 3 -22 10 -69 16 -105 5 -36 13 -90 16 -120
4 -30 8 -57 10 -60 2 -3 6 -34 10 -70 4 -36 8 -67 10 -70 2 -3 6 -30 9 -60 6
-50 9 -66 20 -125 3 -16 27 -77 83 -213 4 -10 20 -12 62 -7 53 6 81 9 196 20
28 3 66 8 85 10 19 3 58 7 85 10 114 10 152 17 200 35 66 24 334 128 360 139
11 5 67 27 125 50 58 22 119 46 135 52 17 7 35 13 41 14 14 3 669 451 687 470
6 7 61 63 120 124 60 61 105 111 100 111 -4 0 -3 4 4 8 11 7 99 186 142 289
11 27 44 117 73 200 29 84 55 153 58 153 3 0 22 -34 42 -75 36 -72 47 -84 193
-220 184 -172 374 -291 555 -350 111 -36 148 -40 240 -30 19 2 69 6 110 10 41
3 76 7 77 9 7 7 63 236 67 276 22 184 26 274 26 491 -1 241 -2 252 -36 420
-19 95 -37 176 -40 181 -3 5 5 6 18 4 46 -11 254 -48 286 -51 18 -2 41 -6 50
-9 9 -3 33 -8 52 -11 19 -3 58 -10 85 -15 52 -10 103 -18 170 -29 23 -3 86 1
145 11 58 10 123 20 144 24 22 3 78 25 125 48 47 23 102 48 121 55 19 7 44 17
55 21 11 5 45 17 75 29 30 11 84 31 120 45 36 13 91 34 123 46 57 21 595 374
628 411 8 10 89 95 180 190 90 95 189 198 219 230 62 65 65 71 151 259 34 74
72 158 85 187 13 28 24 56 24 62 0 8 -76 106 -115 147 -5 6 -48 53 -95 105
-196 215 -159 189 -535 378 l-340 171 -195 39 c-222 45 -274 53 -585 91 -93
11 -177 23 -185 25 -8 2 -46 7 -85 10 -38 3 -77 7 -85 10 -56 15 -248 24 -290
13 -14 -3 -112 -27 -219 -54 -192 -47 -193 -47 -207 -79 -7 -18 -21 -35 -31
-38 -10 -4 -25 -11 -33 -17 -30 -19 -205 -120 -210 -120 -8 0 -37 -48 -185
-300 l-137 -235 -39 -180 c-22 -99 -45 -206 -51 -237 l-12 -58 -51 -1 c-68 -1
-98 -7 -156 -29 l-49 -20 -4 23 c-3 12 -10 60 -16 107 -6 47 -14 101 -16 120
-6 46 -23 175 -29 225 -12 92 -14 105 -20 127 -10 32 -357 370 -373 363 -7 -3
-11 -1 -8 3 3 5 -131 91 -296 192 -307 187 -318 192 -443 204 -78 8 -144 16
-175 21 -14 3 -56 7 -95 11 -38 4 -73 8 -76 10 -3 2 -40 6 -81 10 l-75 6 -13
-78z m174 -3952 c3 -5 -1 -9 -9 -9 -8 0 -12 4 -9 9 3 4 7 8 9 8 2 0 6 -4 9 -8z"/>
</g>
</svg>
